HIERARCHY
ROOT hip
{
  OFFSET 0 0 0
  CHANNELS 6 Xposition Yposition Zposition Zrotation Yrotation Xrotation
  JOINT abdomen
  {
    OFFSET 0 20.6881 -0.73152
    CHANNELS 3 Zrotation Xrotation Yrotation
    JOINT chest
    {
      OFFSET 0 11.7043 -0.48768
      CHANNELS 3 Zrotation Xrotation Yrotation
      JOINT neck
      {
        OFFSET 0 22.1894 -2.19456
        CHANNELS 3 Zrotation Xrotation Yrotation
        JOINT head
        {
          OFFSET -0.24384 7.07133 1.2192
          CHANNELS 3 Zrotation Xrotation Yrotation
          JOINT leftEye
          {
            OFFSET 4.14528 8.04674 8.04672
            CHANNELS 3 Zrotation Xrotation Yrotation
            End Site
            {
              OFFSET 1 0 0
            }
          }
          JOINT rightEye
          {
            OFFSET -3.6576 8.04674 8.04672
            CHANNELS 3 Zrotation Xrotation Yrotation
            End Site
            {
              OFFSET 1 0 0
            }
          }
        }
      }
      JOINT rCollar
      {
        OFFSET -2.68224 19.2634 -4.8768
        CHANNELS 3 Zrotation Xrotation Yrotation
        JOINT rShldr
        {
          OFFSET -8.77824 -1.95073 1.46304
          CHANNELS 3 Zrotation Xrotation Yrotation
          JOINT rForeArm
          {
            OFFSET -28.1742 -1.7115 0.48768
            CHANNELS 3 Zrotation Xrotation Yrotation
            JOINT rHand
            {
              OFFSET -22.5879 0.773209 7.07136
              CHANNELS 3 Zrotation Xrotation Yrotation
              JOINT rThumb1
              {
                OFFSET -1.2192 -0.487915 3.41376
                CHANNELS 3 Zrotation Xrotation Yrotation
                JOINT rThumb2
                {
                  OFFSET -3.37035 -0.52449 3.41376
                  CHANNELS 3 Zrotation Xrotation Yrotation
                  End Site
                  {
                    OFFSET -1.78271 -1.18214 1.43049
                  }
                }
              }
              JOINT rIndex1
              {
                OFFSET -7.75947 0.938293 5.60832
                CHANNELS 3 Zrotation Xrotation Yrotation
                JOINT rIndex2
                {
                  OFFSET -2.54057 -0.884171 1.56538
                  CHANNELS 3 Zrotation Xrotation Yrotation
                  End Site
                  {
                    OFFSET -1.62519 -0.234802 1.16502
                  }
                }
              }
              JOINT rMid1
              {
                OFFSET -8.24714 1.18213 3.41376
                CHANNELS 3 Zrotation Xrotation Yrotation
                JOINT rMid2
                {
                  OFFSET -3.10165 -0.590103 1.0647
                  CHANNELS 3 Zrotation Xrotation Yrotation
                  End Site
                  {
                    OFFSET -2.48547 -0.328903 0.83742
                  }
                }
              }
              JOINT rRing1
              {
                OFFSET -8.82822 0.546677 1.51678
                CHANNELS 3 Zrotation Xrotation Yrotation
                JOINT rRing2
                {
                  OFFSET -2.60934 -0.819778 -0.0198488
                  CHANNELS 3 Zrotation Xrotation Yrotation
                  End Site
                  {
                    OFFSET -2.33842 -0.294052 0.168128
                  }
                }
              }
              JOINT rPinky1
              {
                OFFSET -8.27202 -0.0477905 -0.4584
                CHANNELS 3 Zrotation Xrotation Yrotation
                JOINT rPinky2
                {
                  OFFSET -1.82734 -0.647385 -0.700984
                  CHANNELS 3 Zrotation Xrotation Yrotation
                  End Site
                  {
                    OFFSET -1.69225 -0.51767 -0.607171
                  }
                }
              }
            }
          }
        }
      }
      JOINT lCollar
      {
        OFFSET 2.68224 19.2634 -4.8768
        CHANNELS 3 Zrotation Xrotation Yrotation
        JOINT lShldr
        {
          OFFSET 8.77824 -1.95073 1.46304
          CHANNELS 3 Zrotation Xrotation Yrotation
          JOINT lForeArm
          {
            OFFSET 28.1742 -1.7115 0.48768
            CHANNELS 3 Zrotation Xrotation Yrotation
            JOINT lHand
            {
              OFFSET 22.5879 0.773209 7.07136
              CHANNELS 3 Zrotation Xrotation Yrotation
              JOINT lThumb1
              {
                OFFSET 1.2192 -0.487915 3.41376
                CHANNELS 3 Zrotation Xrotation Yrotation
                JOINT lThumb2
                {
                  OFFSET 3.37035 -0.52449 3.41376
                  CHANNELS 3 Zrotation Xrotation Yrotation
                  End Site
                  {
                    OFFSET 1.78271 -1.18214 1.43049
                  }
                }
              }
              JOINT lIndex1
              {
                OFFSET 7.75947 0.938293 5.60832
                CHANNELS 3 Zrotation Xrotation Yrotation
                JOINT lIndex2
                {
                  OFFSET 2.54057 -0.884171 1.56538
                  CHANNELS 3 Zrotation Xrotation Yrotation
                  End Site
                  {
                    OFFSET 1.62519 -0.234802 1.16502
                  }
                }
              }
              JOINT lMid1
              {
                OFFSET 8.24714 1.18213 3.41376
                CHANNELS 3 Zrotation Xrotation Yrotation
                JOINT lMid2
                {
                  OFFSET 3.10165 -0.590103 1.0647
                  CHANNELS 3 Zrotation Xrotation Yrotation
                  End Site
                  {
                    OFFSET 2.48547 -0.328903 0.83742
                  }
                }
              }
              JOINT lRing1
              {
                OFFSET 8.82822 0.546677 1.51678
                CHANNELS 3 Zrotation Xrotation Yrotation
                JOINT lRing2
                {
                  OFFSET 2.60934 -0.819778 -0.0198488
                  CHANNELS 3 Zrotation Xrotation Yrotation
                  End Site
                  {
                    OFFSET 2.33842 -0.294052 0.168128
                  }
                }
              }
              JOINT lPinky1
              {
                OFFSET 8.27202 -0.0477905 -0.4584
                CHANNELS 3 Zrotation Xrotation Yrotation
                JOINT lPinky2
                {
                  OFFSET 1.82734 -0.647385 -0.700984
                  CHANNELS 3 Zrotation Xrotation Yrotation
                  End Site
                  {
                    OFFSET 1.69225 -0.51767 -0.607171
                  }
                }
              }
            }
          }
        }
      }
    }
  }
  JOINT rButtock
  {
    OFFSET -8.77824 4.35084 1.2192
    CHANNELS 3 Zrotation Xrotation Yrotation
    JOINT rThigh
    {
      OFFSET 0 -1.70687 -2.19456
      CHANNELS 3 Zrotation Xrotation Yrotation
      JOINT rShin
      {
        OFFSET 0 -36.8199 0.73152
        CHANNELS 3 Zrotation Xrotation Yrotation
        JOINT rFoot
        {
          OFFSET 0.73152 -45.1104 -5.12064
          CHANNELS 3 Zrotation Xrotation Yrotation
          End Site
          {
            OFFSET -1.1221 -3.69964 12.103
          }
        }
      }
    }
  }
  JOINT lButtock
  {
    OFFSET 8.77824 4.35084 1.2192
    CHANNELS 3 Zrotation Xrotation Yrotation
    JOINT lThigh
    {
      OFFSET 0 -1.70687 -2.19456
      CHANNELS 3 Zrotation Xrotation Yrotation
      JOINT lShin
      {
        OFFSET 0 -36.8199 0.73152
        CHANNELS 3 Zrotation Xrotation Yrotation
        JOINT lFoot
        {
          OFFSET -0.73152 -45.1104 -5.12064
          CHANNELS 3 Zrotation Xrotation Yrotation
          End Site
          {
            OFFSET 1.1221 -3.69964 12.103
          }
        }
      }
    }
  }
}
MOTION
Frames:	4
Frame Time:	0.03333
1.4168350180769929 35.667090751455675 21.229278055304093 -158.9731903076172 -67.68185424804688 158.98072814941406 1.8099024295806885 11.641282081604004 12.80451488494873 0.41507643461227417 -13.56009578704834 3.3568646907806396 -0.24572087824344635 13.879992485046387 8.46701717376709 5.387049674987793 -21.102109909057617 18.600830078125 0.20818591117858887 0.23442640900611877 0.008739572949707508 0.2946096360683441 -0.06076354160904884 -0.09918168187141418 -0.15180626511573792 0.004453081637620926 -0.23795142769813538 46.08350372314453 76.79952239990234 16.359704971313477 -27.62065315246582 -43.08409881591797 89.29138946533203 -32.589378356933594 -78.0912094116211 -40.42043685913086 0.34222328662872314 0.047827769070863724 0.5878307223320007 0.22980841994285583 -0.2942039370536804 -0.18885941803455353 -0.2550855875015259 -0.40577763319015503 -0.12896953523159027 7.208583831787109 5.8752827644348145 0.7009081840515137 -0.6186746954917908 -0.32330623269081116 -0.2913837134838104 2.846546173095703 0.7143944501876831 -0.05255056172609329 0.08934862911701202 -0.11029886454343796 0.20189200341701508 10.513922691345215 0.7719067335128784 0.12920521199703217 0.007086230907589197 0.06604468077421188 0.10228186100721359 2.518571615219116 -0.6484183073043823 -0.022867543622851372 -0.08434823900461197 0.046471819281578064 -0.27986955642700195 -67.3180160522461 5.142348289489746 -38.203678131103516 28.077978134155273 -33.7462272644043 -73.00425720214844 0.6772171854972839 18.425039291381836 -2.703148365020752 -0.05227464810013771 -0.02303173393011093 -0.48121267557144165 0.15260685980319977 0.28620803356170654 0.12436448037624359 -0.06202475726604462 0.1885976791381836 -0.15166938304901123 -7.725272178649902 5.113284111022949 -0.4541257619857788 -0.4647781252861023 -0.15749482810497284 0.41773873567581177 -2.6576528549194336 0.9928255677223206 -0.3052586615085602 0.17437757551670074 0.16998089849948883 0.21936443448066711 -10.480889320373535 0.9595579504966736 0.36908096075057983 0.25229188799858093 0.20382733643054962 -0.028583509847521782 -2.2470130920410156 -1.016262412071228 -0.2783937454223633 -0.29104435443878174 0.3728126585483551 0.18264912068843842 -11.528521537780762 -38.68572998046875 -24.015789031982422 -12.386960983276367 86.82109069824219 13.984776496887207 -22.806188583374023 -24.830833435058594 -33.995845794677734 -0.4917730689048767 -0.01927759498357773 0.05216198414564133 82.86286926269531 -46.05451965332031 77.67204284667969 4.7370381355285645 78.43144989013672 -4.774756908416748 0.29478949308395386 1.8958040475845337 -4.943840026855469
1.3819568705237344 35.75125917259774 21.644619457494187 -159.05410766601562 -67.83018493652344 158.79666137695312 1.8088001012802124 11.655218124389648 12.7107572555542 0.444566935300827 -13.520901679992676 3.3018360137939453 -0.3246631920337677 13.868162155151367 8.277678489685059 5.375840187072754 -21.260616302490234 18.244413375854492 0.1988901048898697 0.23210804164409637 -0.016478432342410088 0.2855895459651947 -0.06508903950452805 -0.09459540247917175 -0.18228693306446075 -0.0057400986552238464 -0.23383799195289612 44.916778564453125 76.1259765625 17.585050582885742 -27.651668548583984 -42.921112060546875 88.86210632324219 -30.82598114013672 -77.66594696044922 -38.61813735961914 0.34649914503097534 0.04859777167439461 0.6038036346435547 0.2188776135444641 -0.30910423398017883 -0.21195437014102936 -0.24535606801509857 -0.39736807346343994 -0.13620883226394653 7.211058139801025 5.890113830566406 0.7329684495925903 -0.612387478351593 -0.308376282453537 -0.30014562606811523 2.8418073654174805 0.7148420214653015 -0.03400402516126633 0.09044411033391953 -0.10554198175668716 0.20470379292964935 10.503945350646973 0.7870851755142212 0.14933407306671143 0.014009405858814716 0.07670243084430695 0.10729115456342697 2.5283424854278564 -0.6378603577613831 -0.015094440430402756 -0.09182453155517578 0.05167098343372345 -0.27573469281196594 -67.19812774658203 5.354338645935059 -38.34636688232422 28.060983657836914 -33.69334411621094 -72.92393493652344 0.6834229826927185 17.96858024597168 -2.6546266078948975 -0.03729333356022835 -0.029980944469571114 -0.49374842643737793 0.15918341279029846 0.3061649203300476 0.10702276229858398 -0.05231595039367676 0.19080807268619537 -0.15417544543743134 -7.713871002197266 5.106159210205078 -0.45512089133262634 -0.44981124997138977 -0.15832668542861938 0.40937039256095886 -2.6696977615356445 1.0008466243743896 -0.29621556401252747 0.17685452103614807 0.1712634414434433 0.22009018063545227 -10.47192096710205 0.9872720837593079 0.36484459042549133 0.28764137625694275 0.19598296284675598 -0.036174677312374115 -2.2497775554656982 -0.9994797706604004 -0.305822491645813 -0.29753586649894714 0.3700041174888611 0.15746688842773438 -11.121992111206055 -38.6290283203125 -23.51459312438965 -11.78921127319336 86.6809310913086 13.3867769241333 -22.781742095947266 -24.577796936035156 -33.99636459350586 -0.5071581602096558 0.0022713153157383204 0.03662097826600075 82.67779541015625 -46.550106048583984 77.3071060180664 4.612913131713867 78.0055923461914 -4.6414690017700195 0.31471243500709534 1.965790867805481 -4.729416847229004
1.3482808362643979 35.73115792587039 22.050301478094006 -158.80612182617188 -67.76107025146484 159.04441833496094 1.7337169647216797 11.71015739440918 12.743048667907715 0.39834389090538025 -13.50204849243164 3.2996058464050293 -0.3377452790737152 13.864830017089844 8.349014282226562 5.280274391174316 -21.3288631439209 18.294116973876953 0.21146191656589508 0.2560974061489105 -0.019428858533501625 0.29485827684402466 -0.06929748505353928 -0.0990884006023407 -0.20034529268741608 0.015877777710556984 -0.2215328961610794 43.57611083984375 75.99201202392578 19.037094116210938 -27.573509216308594 -42.993595123291016 89.09688568115234 -30.42222023010254 -77.51425170898438 -38.209190368652344 0.33394259214401245 0.03902871906757355 0.6182102560997009 0.21009200811386108 -0.32346951961517334 -0.22143910825252533 -0.21031464636325836 -0.3771972060203552 -0.11062487959861755 7.21615743637085 5.886981010437012 0.7474550604820251 -0.619052529335022 -0.2992733120918274 -0.2950443625450134 2.821092367172241 0.7291736602783203 0.005783169064670801 0.09218551963567734 -0.10563644766807556 0.20179544389247894 10.49880313873291 0.8046025633811951 0.14224189519882202 0.01710694283246994 0.08471857011318207 0.08596085757017136 2.5334692001342773 -0.6484131813049316 -0.0020112518686801195 -0.09648963809013367 0.07133222371339798 -0.2925049662590027 -67.13988494873047 5.28091287612915 -38.468841552734375 28.067665100097656 -33.8687629699707 -73.28211975097656 0.6729181408882141 17.504419326782227 -2.5884506702423096 -0.0204240083694458 -0.02729669213294983 -0.4876164495944977 0.17351509630680084 0.2917301058769226 0.09148308634757996 -0.036377064883708954 0.18147990107536316 -0.17753736674785614 -7.717021465301514 5.100898742675781 -0.47378304600715637 -0.4443664848804474 -0.15551970899105072 0.4013392925262451 -2.670874834060669 1.0096036195755005 -0.2769641578197479 0.18941131234169006 0.1493728756904602 0.20791995525360107 -10.462281227111816 0.9798324108123779 0.3604538142681122 0.29137179255485535 0.191458597779274 -0.017226533964276314 -2.2785205841064453 -0.9959549903869629 -0.31951823830604553 -0.31348294019699097 0.35398030281066895 0.11621883511543274 -10.998434066772461 -38.75653839111328 -23.351619720458984 -13.16403865814209 86.8320083618164 14.759947776794434 -22.792190551757812 -24.657779693603516 -33.9254264831543 -0.5161040425300598 -0.01750532165169716 0.018522953614592552 82.6065444946289 -46.802757263183594 77.1546630859375 4.605911731719971 77.84992218017578 -4.600907325744629 0.29409292340278625 2.0296318531036377 -4.690552234649658
1.315851311528589 35.63661103228449 22.465438081330706 -158.58026123046875 -67.6961898803711 159.33694458007812 1.64969801902771 11.742124557495117 12.85183048248291 0.3251100778579712 -13.509088516235352 3.331622838973999 -0.29329490661621094 13.870368003845215 8.561983108520508 5.176987171173096 -21.278493881225586 18.58815574645996 0.22992072999477386 0.2857063114643097 -0.010033197700977325 0.303863525390625 -0.061354659497737885 -0.11456236988306046 -0.18905732035636902 0.05437047779560089 -0.20794519782066345 42.94950485229492 76.27471923828125 19.74386215209961 -27.490352630615234 -43.18649673461914 89.61015319824219 -31.0992488861084 -77.6492691040039 -38.92821502685547 0.3155008554458618 0.023954760283231735 0.6223687529563904 0.2080865502357483 -0.3221510946750641 -0.22409136593341827 -0.16656821966171265 -0.37266767024993896 -0.08417435735464096 7.220693111419678 5.87161111831665 0.7465197443962097 -0.6385939717292786 -0.2934350073337555 -0.2854982018470764 2.8014495372772217 0.745272159576416 0.03625359386205673 0.08044017851352692 -0.11313904821872711 0.19631609320640564 10.499943733215332 0.8014176487922668 0.1168953999876976 0.008178535848855972 0.09217934310436249 0.05877596139907837 2.523237705230713 -0.6566348075866699 0.009706240147352219 -0.1085849180817604 0.09339626133441925 -0.30199742317199707 -67.2112808227539 4.947296142578125 -38.4583625793457 28.100831985473633 -34.073883056640625 -73.6776123046875 0.6589462161064148 17.305892944335938 -2.571263551712036 -0.011511493474245071 -0.017463866621255875 -0.4894278049468994 0.17634335160255432 0.2621794641017914 0.0777401551604271 -0.028466468676924706 0.169820174574852 -0.19985029101371765 -7.720643997192383 5.095861911773682 -0.5011229515075684 -0.45582205057144165 -0.14926552772521973 0.40148109197616577 -2.6653382778167725 1.0144060850143433 -0.2646126449108124 0.19105421006679535 0.13317017257213593 0.19731886684894562 -10.468003273010254 0.9548361897468567 0.36226361989974976 0.2717665135860443 0.18360739946365356 0.014445889741182327 -2.3180880546569824 -0.9975494146347046 -0.3178858458995819 -0.32057419419288635 0.3346922695636749 0.09524556249380112 -11.025022506713867 -38.9300651550293 -23.408023834228516 -15.404829978942871 87.06321716308594 17.002685546875 -22.877954483032227 -24.948884963989258 -33.895328521728516 -0.5191486477851868 -0.041357532143592834 0.016458455473184586 82.71378326416016 -46.802032470703125 77.24442291259766 4.636569499969482 77.90821075439453 -4.584605693817139 0.22906911373138428 2.096742630004883 -4.797645092010498
